 <svg  version="1.0" xmlns="http://www.w3.org/2000/svg"  width="300.000000pt" height="110.000000pt" viewBox="0 0 300.000000 110.000000"  preserveAspectRatio="xMidYMid meet">  <g transform="translate(0.000000,110.000000) scale(0.100000,-0.100000)" fill="#ffffff" stroke="none"> <path d="M1390 678 c-35 -161 -65 -303 -68 -316 -4 -22 -3 -23 59 -20 l63 3 71 313 71 312 -66 0 -66 0 -64 -292z"/> <path d="M161 865 c-17 -67 -121 -515 -121 -520 0 -3 29 -5 65 -5 l64 0 10 37 c6 21 18 71 27 113 9 41 19 78 23 82 4 4 38 -45 77 -110 l70 -117 82 -3 82 -3 -86 142 -86 142 143 143 144 144 -80 0 -80 0 -126 -126 -127 -126 29 118 c16 66 29 122 29 127 0 4 -29 7 -64 7 l-64 0 -11 -45z"/> <path d="M736 754 c-64 -20 -137 -93 -159 -159 -39 -113 -10 -206 78 -253 54 -28 199 -16 250 22 17 12 18 18 7 55 -14 45 -16 46 -52 26 -14 -8 -48 -14 -76 -15 -56 0 -87 18 -99 58 l-6 22 133 0 c73 0 140 4 148 10 10 6 15 31 18 77 3 75 -14 117 -62 148 -35 23 -122 28 -180 9z m118 -106 c30 -43 22 -48 -71 -48 l-88 1 37 34 c46 43 98 48 122 13z"/> <path d="M1254 744 c-21 -15 -44 -34 -52 -43 -10 -13 -11 -10 -6 22 l6 38 -63 -3 -62 -3 -43 -190 c-24 -104 -43 -198 -43 -207 -1 -15 8 -18 62 -18 l62 0 24 107 c12 60 29 120 36 134 19 36 60 60 108 64 44 3 45 5 61 88 7 36 6 37 -22 37 -16 0 -47 -12 -68 -26z"/> <path d="M1734 754 c-118 -43 -203 -187 -174 -293 23 -86 90 -134 185 -134 148 0 265 112 265 255 0 73 -26 128 -75 158 -47 29 -144 36 -201 14z m129 -111 c61 -69 -6 -213 -99 -213 -97 0 -113 129 -25 203 39 32 99 37 124 10z"/> <path d="M2665 746 c-61 -32 -86 -65 -93 -121 -4 -36 0 -47 24 -74 18 -19 50 -38 83 -49 65 -20 86 -46 57 -68 -28 -20 -83 -17 -134 8 l-45 21 -28 -34 c-16 -19 -29 -40 -29 -47 0 -26 88 -54 167 -54 129 0 211 64 199 156 -6 50 -37 81 -105 104 -62 21 -82 42 -62 66 18 21 85 21 123 -1 30 -18 30 -18 54 12 49 59 49 64 7 82 -21 9 -67 18 -103 20 -55 4 -73 0 -115 -21z"/> <path d="M2115 748 c-23 -73 -65 -299 -60 -324 19 -102 144 -132 242 -58 l33 25 -6 -28 -6 -28 64 3 63 3 28 127 c15 70 36 164 46 210 l19 83 -66 -3 -65 -3 -29 -125 c-15 -69 -36 -136 -46 -150 -11 -14 -38 -32 -61 -40 -83 -29 -97 17 -56 181 14 57 28 112 31 122 5 15 -2 17 -61 17 -44 0 -67 -4 -70 -12z"/> <path d="M2805 263 c-35 -9 -429 -131 -453 -140 -17 -6 48 -16 222 -32 230 -21 247 -21 280 -6 62 30 83 117 38 158 -20 18 -59 27 -87 20z"/> </g> </svg> 